<?xml version="1.0" encoding="UTF-8" standalone="no"?> <svg id="Layer_1" data-name="Layer 1" xmlns="http://www.w3.org/2000/svg" viewBox="0 0 512 512"><title>Forest</title><path d="M484.539,271.334a64.4,64.4,0,0,0-9.811-14.911,58.715,58.715,0,0,0-17.295-74.352A53.4,53.4,0,0,0,416,118.373q.011-.52.01-1.04a53.336,53.336,0,0,0-106.671-.223,53.335,53.335,0,0,0-106.668-.021A53.336,53.336,0,0,0,96,117.333q0,.513.009,1.027a53.351,53.351,0,0,0-41.481,63.755,58.721,58.721,0,0,0-17.256,74.312,64,64,0,0,0,48.072,106.24h21.327v74.667A10.667,10.667,0,0,0,117.333,448h64A10.667,10.667,0,0,0,192,437.333V362.667h21.333v74.667A10.667,10.667,0,0,0,224,448h64a10.667,10.667,0,0,0,10.667-10.667V362.667H320v74.667A10.667,10.667,0,0,0,330.666,448h64a10.667,10.667,0,0,0,10.667-10.667V362.667h21.329a64.073,64.073,0,0,0,64-64A63.271,63.271,0,0,0,484.539,271.334Zm-270.2-132.667A10.666,10.666,0,0,0,225,125.346a32.007,32.007,0,1,1,62,0,10.667,10.667,0,0,0,10.653,13.323l.376-.013c.211-.007.424-.017.637-.017a32,32,0,0,1,29.63,44.088,10.667,10.667,0,0,0,4.94,13.492,37.328,37.328,0,0,1,12.712,55.411,10.667,10.667,0,0,0,1.644,14.51,42.657,42.657,0,0,1-27.6,75.2H192a42.656,42.656,0,0,1-27.6-75.191,10.666,10.666,0,0,0,1.643-14.508,37.328,37.328,0,0,1,12.686-55.392,10.668,10.668,0,0,0,4.928-13.5,32,32,0,0,1,29.621-44.11c.235,0,.468.01.7.018ZM55.165,328.83a42.624,42.624,0,0,1,2.572-62.683,10.667,10.667,0,0,0,1.643-14.513,37.329,37.329,0,0,1,12.681-55.385A10.666,10.666,0,0,0,77,182.766a32,32,0,0,1,29.612-44.131c.291,0,.575.016.923.032a10.666,10.666,0,0,0,10.807-13.3,32.38,32.38,0,0,1-1.01-8.031,32.005,32.005,0,1,1,63,8.01,10.66,10.66,0,0,0-.29,3.615,53.333,53.333,0,0,0-18.853,53.155,58.714,58.714,0,0,0-17.257,74.312,63.9,63.9,0,0,0,.417,84.907H85.339A42.391,42.391,0,0,1,55.165,328.83Zm115.5,97.836H128v-64h42.667Zm106.667,0H234.666v-64h42.667Zm106.667,0H341.333v-64H384Zm42.663-85.333H367.65a63.905,63.905,0,0,0,.412-84.914,58.714,58.714,0,0,0-17.3-74.347A53.323,53.323,0,0,0,331.956,129a10.648,10.648,0,0,0-.283-3.637,32.38,32.38,0,0,1-1.01-8.031,32.005,32.005,0,1,1,63,8.01,10.666,10.666,0,0,0,10.329,13.323c.083,0,.167,0,.249,0l.548-.016c.179-.006.357-.013.537-.013a32.016,32.016,0,0,1,29.636,44.089,10.667,10.667,0,0,0,4.943,13.5,37.33,37.33,0,0,1,12.709,55.409,10.666,10.666,0,0,0,1.652,14.509,43.047,43.047,0,0,1,10.991,14.327,42.116,42.116,0,0,1,4.069,18.2A42.716,42.716,0,0,1,426.662,341.333Z"/></svg>