<?xml version="1.0" encoding="UTF-8" standalone="no"?> <svg xmlns="http://www.w3.org/2000/svg" viewBox="0 0 32 32"><title>Park</title><g id="Park"><path d="M17,20V16a2,2,0,0,0-2-2H6a2,2,0,0,0-2,2v4a2,2,0,0,0-2,2v1a2,2,0,0,0,2,2v2a1,1,0,0,0,2,0V25h9v2a1,1,0,0,0,2,0V25a2,2,0,0,0,2-2V22A2,2,0,0,0,17,20ZM6,16h9v4H6ZM4,23V22H17v1Z"/><path d="M30,16c0-4.457-1.475-12-7-12-3.222,0-5.54,2.642-6.529,7.438a1,1,0,1,0,1.959.4C18.979,9.177,20.218,6,23,6c3.955,0,5,6.541,5,10a5.009,5.009,0,0,1-4,4.9V19.414l1.707-1.707a1,1,0,0,0-1.414-1.414L24,16.586V14a1,1,0,0,0-2,0v1.586l-.293-.293a1,1,0,0,0-1.414,1.414L22,18.414V20.93a.987.987,0,0,0-.993.8,1,1,0,0,0,.8,1.163c.062.011.126.007.188.017V27a1,1,0,0,0,2,0V22.92A7.006,7.006,0,0,0,30,16Z"/><path d="M3.35,11H13.384a1,1,0,0,0,.962-.726A3.715,3.715,0,0,0,10.75,5.5a3.636,3.636,0,0,0-.831.1,4.484,4.484,0,0,0-7.472,4.834A1,1,0,0,0,3.35,11ZM6.5,6A2.5,2.5,0,0,1,8.667,7.284a1,1,0,0,0,1.314.405A1.748,1.748,0,0,1,12.482,9H4.055A2.356,2.356,0,0,1,4,8.5,2.5,2.5,0,0,1,6.5,6Z"/></g></svg>